<?xml version="1.0" standalone="no"?>
<!DOCTYPE svg PUBLIC "-//W3C//DTD SVG 20010904//EN"
 "http://www.w3.org/TR/2001/REC-SVG-20010904/DTD/svg10.dtd">
<svg version="1.0" xmlns="http://www.w3.org/2000/svg"
 width="1024.000000pt" height="1024.000000pt" viewBox="0 0 1024.000000 1024.000000"
 preserveAspectRatio="xMidYMid meet">

<g transform="translate(0.000000,1024.000000) scale(0.100000,-0.100000)"
fill="#000000" stroke="none">
<path d="M4955 8795 c-138 -26 -274 -77 -475 -178 -572 -289 -1872 -988 -2009
-1080 -203 -136 -340 -334 -404 -584 l-22 -88 0 -1280 c0 -1195 1 -1285 18
-1354 37 -151 100 -271 201 -379 76 -81 127 -119 308 -229 489 -297 722 -438
1313 -793 748 -449 836 -500 925 -535 187 -73 431 -73 611 -1 35 15 114 54
174 88 220 123 2179 1296 2260 1353 154 109 271 280 321 470 18 67 19 132 19
1375 0 1213 -1 1310 -18 1374 -48 186 -125 323 -262 462 -55 55 -120 115 -145
132 -94 63 -457 259 -1115 602 -192 100 -386 202 -430 225 -235 125 -621 318
-697 349 -183 75 -402 102 -573 71z m350 -144 c24 -8 18 -8 -25 -3 -97 12
-300 6 -370 -12 -111 -29 -107 -28 -89 -17 15 9 121 35 184 45 49 7 267 -2
300 -13z m62 -17 c-3 -3 -12 -4 -19 -1 -8 3 -5 6 6 6 11 1 17 -2 13 -5z m109
-35 c41 -17 74 -33 72 -35 -2 -1 -42 12 -88 31 -47 19 -79 35 -72 35 7 0 47
-14 88 -31z m-677 7 c-10 -9 -333 -167 -324 -158 12 12 306 161 319 162 5 0 7
-2 5 -4z m310 0 c-2 -2 -42 -6 -89 -8 -47 -3 -74 -2 -60 2 25 8 157 13 149 6z
m134 -3 c-24 -2 -62 -2 -85 0 -24 2 -5 4 42 4 47 0 66 -2 43 -4z m154 -28 c43
-14 89 -32 103 -40 33 -19 17 -19 -20 0 -15 8 -66 26 -112 39 -46 14 -75 25
-66 25 9 1 52 -10 95 -24z m-543 -15 c-45 -15 -161 -69 -258 -120 -97 -50
-176 -89 -176 -87 0 3 79 47 176 97 163 85 288 139 324 139 8 -1 -22 -13 -66
-29z m826 -65 c0 -3 -27 8 -60 25 -33 17 -60 33 -60 35 0 3 27 -8 60 -25 33
-17 60 -33 60 -35z m10 -60 c0 -3 -18 4 -40 15 -22 11 -40 23 -40 25 0 3 18
-4 40 -15 22 -11 40 -23 40 -25z m140 -21 c0 -2 -13 2 -30 11 -16 9 -30 18
-30 21 0 2 14 -2 30 -11 17 -9 30 -18 30 -21z m-1370 21 c0 -3 -27 -18 -60
-35 -33 -17 -60 -28 -60 -25 0 2 26 18 58 34 64 34 62 33 62 26z m1465 -73
c-3 -3 -11 0 -18 7 -9 10 -8 11 6 5 10 -3 15 -9 12 -12z m-1615 -7 c0 -3 -36
-23 -80 -45 -44 -22 -80 -38 -80 -35 0 4 146 82 158 85 1 0 2 -2 2 -5z m55
-35 c-3 -5 -12 -10 -18 -10 -7 0 -6 4 3 10 19 12 23 12 15 0z m-35 -15 c0 -2
-13 -11 -30 -20 -38 -19 -40 -11 -2 9 31 17 32 18 32 11z m-190 -40 c0 -3 -27
-18 -60 -35 -33 -17 -60 -28 -60 -25 0 2 26 18 58 34 64 34 62 33 62 26z m60
-30 c0 -2 -18 -14 -40 -25 -22 -11 -40 -18 -40 -15 0 2 17 13 38 24 42 23 42
23 42 16z m-210 -50 c0 -3 -31 -21 -70 -40 -38 -19 -70 -33 -70 -30 0 4 126
72 138 75 1 0 2 -2 2 -5z m80 -20 c0 -2 -18 -14 -40 -25 -22 -11 -40 -18 -40
-15 0 2 17 13 38 24 42 23 42 23 42 16z m-250 -70 c0 -2 -18 -14 -40 -25 -22
-11 -40 -18 -40 -15 0 2 17 13 38 24 42 23 42 23 42 16z m55 -35 c-3 -5 -12
-10 -18 -10 -7 0 -6 4 3 10 19 12 23 12 15 0z m-35 -15 c0 -2 -10 -9 -22 -15
-22 -11 -22 -10 -4 4 21 17 26 19 26 11z m2219 -18 c141 -42 219 -105 276
-221 45 -91 51 -161 31 -401 l-15 -180 5 140 c6 149 -9 330 -32 399 -8 25 -11
29 -8 11 20 -104 21 -145 8 -325 -7 -107 -15 -219 -17 -247 -2 -29 -1 -53 2
-53 17 1 30 18 34 45 4 29 4 28 6 -6 1 -33 -2 -36 -51 -57 -28 -12 -54 -20
-56 -17 -3 3 3 122 13 265 10 143 15 281 11 306 -14 107 -77 193 -175 238
l-46 21 -1020 0 -1020 0 -57 -28 c-101 -50 -167 -143 -183 -262 -5 -38 -21
-269 -80 -1200 -47 -740 -57 -880 -63 -886 -4 -4 -20 -9 -37 -12 l-30 -6 3 52
c6 131 34 655 52 977 11 195 26 488 35 650 8 162 18 329 22 370 3 41 3 73 0
70 -5 -5 -28 -295 -51 -665 -12 -183 -14 -197 -16 -110 -3 147 -16 74 -30
-180 -7 -115 -15 -212 -17 -215 -7 -6 1 185 32 730 27 477 34 523 96 625 37
62 109 123 181 155 26 11 86 24 135 29 48 5 520 8 1048 7 852 -2 966 -4 1014
-19z m-2349 8 c0 -2 -13 -11 -30 -20 -38 -19 -40 -11 -2 9 31 17 32 18 32 11z
m35 -51 c-24 -18 -83 -50 -73 -39 10 10 81 54 88 54 3 0 -4 -7 -15 -15z m-125
1 c0 -2 -13 -11 -30 -20 -38 -19 -40 -11 -2 9 31 17 32 18 32 11z m-90 -50 c0
-2 -13 -11 -30 -20 -38 -19 -40 -11 -2 9 31 17 32 18 32 11z m130 0 c0 -2 -10
-9 -22 -15 -22 -11 -22 -10 -4 4 21 17 26 19 26 11z m-220 -50 c0 -2 -18 -14
-40 -25 -22 -11 -40 -18 -40 -15 0 2 17 13 38 24 42 23 42 23 42 16z m105 -15
c-3 -5 -12 -10 -18 -10 -7 0 -6 4 3 10 19 12 23 12 15 0z m-35 -15 c0 -2 -10
-9 -22 -15 -22 -11 -22 -10 -4 4 21 17 26 19 26 11z m-180 -30 c0 -2 -22 -16
-50 -30 -27 -14 -50 -23 -50 -20 0 2 21 16 48 29 53 28 52 28 52 21z m90 -20
c0 -2 -22 -16 -50 -30 -27 -14 -50 -23 -50 -20 0 2 21 16 48 29 53 28 52 28
52 21z m1006 -33 c6 -4 16 -22 22 -41 17 -47 57 -98 95 -119 29 -15 74 -17
438 -20 277 -2 420 0 448 8 56 15 104 59 130 120 l22 50 202 -2 c111 -1 181
-3 155 -5 -47 -4 -48 -5 -88 -73 -43 -74 -89 -132 -90 -114 0 6 7 17 15 24 8
7 12 17 8 23 -3 6 -1 7 6 3 9 -6 10 0 5 20 -4 15 -3 25 2 22 5 -3 18 4 29 15
11 11 14 17 8 13 -8 -4 -13 -1 -13 9 0 9 4 14 8 11 5 -3 9 1 9 9 0 8 -4 12 -8
9 -4 -2 -10 0 -13 5 -4 5 6 12 21 14 16 2 -31 5 -104 6 l-131 1 -7 -31 c-5
-21 -10 -27 -15 -19 -6 9 -10 7 -15 -9 -10 -34 -54 -80 -96 -102 -38 -19 -57
-19 -473 -17 l-434 3 -44 30 c-28 20 -52 49 -70 84 -32 62 -39 72 -31 42 6
-24 -2 -27 -23 -7 -11 11 -11 16 -1 19 6 3 -62 6 -153 6 -189 1 -224 -9 -278
-74 -40 -49 -52 -101 -67 -303 -7 -92 -13 -144 -14 -117 0 28 4 112 9 189 16
214 57 285 187 315 46 11 334 14 349 3z m-1266 -37 c0 -2 -10 -9 -22 -15 -22
-11 -22 -10 -4 4 21 17 26 19 26 11z m110 -10 c0 -2 -13 -11 -30 -20 -38 -19
-40 -11 -2 9 31 17 32 18 32 11z m-200 -40 c0 -2 -10 -9 -22 -15 -22 -11 -22
-10 -4 4 21 17 26 19 26 11z m1963 -122 c-7 -2 -21 -2 -30 0 -10 3 -4 5 12 5
17 0 24 -2 18 -5z m1314 -95 c-2 -13 -4 -3 -4 22 0 25 2 35 4 23 2 -13 2 -33
0 -45z m-3587 47 c0 -2 -10 -9 -22 -15 -22 -11 -22 -10 -4 4 21 17 26 19 26
11z m2318 -78 c6 -7 16 -44 22 -82 18 -112 17 -111 104 -119 41 -4 89 -12 106
-17 39 -14 47 -7 96 77 46 79 41 79 207 -2 130 -64 132 -66 100 -146 -26 -68
-35 -68 -12 0 12 34 19 69 16 76 -9 22 -117 59 -165 57 -24 -1 -41 2 -38 7 3
5 -6 8 -20 6 -26 -2 -47 -14 -26 -14 18 0 14 -18 -8 -42 -11 -12 -20 -27 -20
-34 0 -7 -8 -15 -17 -19 -22 -7 -65 -73 -57 -86 7 -13 -19 -11 -109 6 -117 22
-326 20 -450 -6 -354 -71 -619 -237 -911 -569 -27 -30 -45 -48 -40 -40 10 19
147 182 167 198 10 9 14 28 12 62 -2 32 1 50 9 50 6 0 -2 12 -17 25 l-28 25
-37 -20 c-36 -20 -37 -20 -40 -1 -4 26 -51 23 -57 -4 -2 -11 -9 -101 -15 -200
-12 -175 -20 -234 -20 -144 0 45 17 333 27 448 2 35 8 60 11 54 4 -5 35 -29
70 -52 l63 -43 68 40 c37 22 77 49 90 59 l23 19 -46 91 c-25 50 -46 102 -46
116 0 31 58 66 215 127 l109 42 19 -23 c11 -13 32 -49 47 -79 51 -100 41 -96
155 -65 157 41 146 31 139 123 -9 108 -7 108 182 111 79 1 115 -3 122 -12z
m2608 -69 c-64 -180 -242 -794 -287 -988 -12 -52 -23 -97 -25 -99 -1 -2 -28
24 -59 58 -31 33 -82 83 -114 110 l-57 50 -140 -167 c-343 -410 -692 -795
-868 -957 -413 -380 -759 -545 -1140 -545 -255 0 -486 68 -690 204 -86 57
-202 159 -236 206 l-20 28 42 16 c24 9 32 14 18 11 -411 -84 -507 -98 -770
-116 -156 -11 -371 -6 -510 12 -92 12 -222 39 -232 48 -4 4 54 13 130 20 429
40 925 165 1310 330 434 186 909 473 1365 826 l78 60 -43 18 c-150 64 -350 73
-503 24 -116 -38 -199 -90 -296 -187 -69 -69 -94 -103 -131 -176 -25 -50 -54
-125 -63 -167 l-18 -76 -146 -69 c-241 -115 -343 -156 -352 -141 -29 47 -22
331 11 452 44 166 161 351 305 485 189 176 432 296 684 339 126 20 347 20 469
-1 235 -42 460 -161 618 -327 58 -61 144 -170 144 -181 0 -9 -155 -137 -285
-235 -378 -285 -777 -529 -1135 -694 -74 -34 -139 -66 -144 -70 -22 -19 94
-82 202 -110 95 -24 263 -26 365 -3 272 61 475 243 1157 1039 308 359 356 418
345 422 -12 4 -278 175 -319 205 l-30 21 165 48 c156 44 360 104 959 279 146
42 267 76 269 74 2 -2 -8 -36 -23 -76z m-4180 3 c-6 -8 -38 -401 -52 -618 -3
-62 -11 -113 -16 -113 -15 0 -86 -163 -122 -283 -46 -151 -66 -288 -66 -444 0
-120 5 -160 47 -389 l5 -31 -122 -24 c-99 -19 -123 -21 -129 -10 -5 7 -14 47
-21 88 -9 60 -16 76 -33 84 -19 8 -234 49 -349 66 l-38 6 0 216 c0 119 3 233
6 253 8 45 4 43 234 83 85 14 161 30 169 34 14 7 89 301 90 353 1 30 -24 52
-173 156 -91 63 -130 77 -120 45 2 -10 -1 -8 -7 4 -10 18 -8 32 11 75 49 113
213 383 254 417 19 16 17 16 171 -39 50 -18 109 -38 132 -46 l42 -13 35 60
c20 33 36 65 36 70 0 5 5 9 11 9 5 0 8 -4 5 -9z m-1006 -25 c0 -2 -8 -10 -17
-17 -16 -13 -17 -12 -4 4 13 16 21 21 21 13z m3837 -48 c-2 -13 -4 -5 -4 17
-1 22 1 32 4 23 2 -10 2 -28 0 -40z m-3917 -31 c0 -2 -10 -12 -22 -23 l-23
-19 19 23 c18 21 26 27 26 19z m1457 -174 c-2 -21 -4 -6 -4 32 0 39 2 55 4 38
2 -18 2 -50 0 -70z m1893 -88 c0 -3 -18 4 -40 15 -22 11 -40 23 -40 25 0 3 18
-4 40 -15 22 -11 40 -23 40 -25z m2227 -107 c-3 -8 -6 -5 -6 6 -1 11 2 17 5
13 3 -3 4 -12 1 -19z m-1770 -85 c-3 -10 -5 -4 -5 12 0 17 2 24 5 18 2 -7 2
-21 0 -30z m-10 -130 c-2 -21 -4 -4 -4 37 0 41 2 58 4 38 2 -21 2 -55 0 -75z
m70 -96 c-2 -23 -3 -1 -3 48 0 50 1 68 3 42 2 -26 2 -67 0 -90z m1720 -9 c-2
-13 -4 -3 -4 22 0 25 2 35 4 23 2 -13 2 -33 0 -45z m-4460 -190 c-2 -18 -4 -4
-4 32 0 36 2 50 4 33 2 -18 2 -48 0 -65z m4460 40 c-2 -13 -4 -5 -4 17 -1 22
1 32 4 23 2 -10 2 -28 0 -40z m0 -225 c-2 -38 -3 -7 -3 67 0 74 1 105 3 68 2
-38 2 -98 0 -135z m-4470 10 c-2 -16 -4 -3 -4 27 0 30 2 43 4 28 2 -16 2 -40
0 -55z m3767 -92 c44 -38 94 -81 110 -96 25 -23 34 -26 55 -18 20 7 26 15 26
40 0 17 3 29 7 26 5 -2 8 -92 8 -200 0 -174 -2 -194 -16 -189 -9 3 -30 7 -47
7 -29 2 -28 2 8 8 l40 6 3 147 3 148 -31 -6 c-27 -6 -39 1 -112 68 -46 40 -98
86 -116 101 -19 15 -30 27 -26 27 3 0 43 -31 88 -69z m703 -108 c-2 -16 -4 -3
-4 27 0 30 2 43 4 28 2 -16 2 -40 0 -55z m-4480 5 c-2 -13 -4 -3 -4 22 0 25 2
35 4 23 2 -13 2 -33 0 -45z m4480 -150 c-2 -24 -4 -7 -4 37 0 44 2 63 4 43 2
-21 2 -57 0 -80z m-1058 1 c-124 -140 -249 -267 -353 -357 -77 -68 -37 -24
152 167 141 142 259 259 261 260 1 0 -25 -31 -60 -70z m518 -31 c-2 -13 -4 -5
-4 17 -1 22 1 32 4 23 2 -10 2 -28 0 -40z m-3950 10 c-3 -7 -5 -2 -5 12 0 14
2 19 5 13 2 -7 2 -19 0 -25z m3950 -90 c-2 -13 -4 -5 -4 17 -1 22 1 32 4 23 2
-10 2 -28 0 -40z m540 -65 c-2 -16 -4 -5 -4 22 0 28 2 40 4 28 2 -13 2 -35 0
-50z m-619 -10 c-10 -2 -26 -2 -35 0 -10 3 -2 5 17 5 19 0 27 -2 18 -5z m-80
-10 c-10 -2 -26 -2 -35 0 -10 3 -2 5 17 5 19 0 27 -2 18 -5z m-108 -15 c-25
-5 -53 -17 -63 -26 -16 -15 -17 -15 -11 1 7 18 53 35 94 35 14 0 5 -5 -20 -10z
m-105 -200 c-14 -73 -29 -148 -34 -166 -9 -31 -8 -34 38 -70 27 -20 85 -63
130 -95 44 -32 81 -65 81 -73 0 -43 -155 -295 -244 -397 l-27 -30 -22 21 c-12
12 -47 35 -77 51 -30 17 -50 31 -45 31 6 0 42 -18 80 -41 l70 -41 28 34 c45
53 159 227 197 300 34 65 34 67 16 87 -10 11 -65 52 -122 91 -128 89 -129 90
-115 132 5 18 22 98 37 178 15 79 29 139 31 133 2 -6 -8 -71 -22 -145z m912
75 c-2 -16 -4 -5 -4 22 0 28 2 40 4 28 2 -13 2 -35 0 -50z m0 -165 c-3 -8 -6
-5 -6 6 -1 11 2 17 5 13 3 -3 4 -12 1 -19z m-1512 -145 c-4 -38 -12 -75 -17
-83 -7 -12 -8 -11 -4 5 2 11 8 48 11 83 4 34 9 62 12 62 2 0 1 -30 -2 -67z
m586 -49 c96 -80 105 -96 12 -22 -92 72 -103 85 -102 111 l2 22 4 -22 c2 -13
39 -52 84 -89z m-876 34 c-2 -7 -14 -146 -25 -308 l-21 -294 -34 -37 c-18 -21
-35 -36 -37 -34 -2 2 4 139 12 305 l15 302 45 39 c50 44 51 44 45 27z m62 -60
c-2 -13 -4 -5 -4 17 -1 22 1 32 4 23 2 -10 2 -28 0 -40z m180 -5 c-3 -10 -5
-4 -5 12 0 17 2 24 5 18 2 -7 2 -21 0 -30z m783 -89 c0 -3 -13 4 -30 16 -16
12 -30 24 -30 26 0 3 14 -4 30 -16 17 -12 30 -24 30 -26z m-3090 -19 c30 -30
52 -55 49 -55 -2 0 -29 25 -59 55 -30 30 -52 55 -49 55 2 0 29 -25 59 -55z
m2297 23 c-3 -8 -6 -5 -6 6 -1 11 2 17 5 13 3 -3 4 -12 1 -19z m-2900 -32 c13
13 18 13 24 2 7 -11 11 -10 19 2 7 12 9 8 9 -15 -1 -31 -16 -89 -18 -67 -1 7
-14 12 -33 11 -31 -1 -32 -1 -8 -9 l25 -8 -29 -1 c-27 -1 -28 1 -22 30 3 17 7
46 7 63 2 30 2 30 6 3 4 -25 6 -26 20 -11z m2720 -13 c-3 -10 -5 -2 -5 17 0
19 2 27 5 18 2 -10 2 -26 0 -35z m-2992 -4 c61 0 67 -2 45 -12 -16 -7 -90 -11
-200 -11 -140 0 -184 4 -220 17 -45 17 -43 17 130 12 96 -3 207 -5 245 -6z
m956 -46 c13 -16 12 -17 -3 -4 -17 13 -22 21 -14 21 2 0 10 -8 17 -17z m2026
-75 c-3 -8 -6 -5 -6 6 -1 11 2 17 5 13 3 -3 4 -12 1 -19z m1760 -40 c-3 -7 -5
-2 -5 12 0 14 2 19 5 13 2 -7 2 -19 0 -25z m-4307 -24 c152 -44 264 -163 317
-334 38 -124 81 -160 258 -212 68 -20 94 -21 815 -24 442 -2 765 1 795 6 86
17 191 60 234 97 23 19 56 63 72 96 103 204 322 292 584 235 64 -14 125 -44
125 -63 0 -26 -311 -228 -327 -212 -3 3 10 12 29 20 45 19 204 119 248 156 25
21 32 33 24 40 -7 8 -26 -1 -64 -29 -30 -23 -100 -70 -156 -105 -55 -35 -106
-75 -112 -87 -16 -31 -44 -197 -37 -219 8 -24 140 -107 183 -115 30 -6 60 6
237 94 174 86 205 99 216 86 18 -21 5 -157 -20 -226 -29 -76 -109 -177 -179
-225 -64 -44 -157 -87 -175 -79 -7 2 -6 5 3 5 9 1 49 17 89 36 74 36 198 146
186 165 -3 5 7 35 24 67 33 67 61 155 60 192 0 14 -9 -7 -19 -47 -49 -185
-173 -310 -355 -357 -74 -19 -132 -19 -213 0 -84 20 -135 48 -198 107 -99 94
-141 179 -153 318 l-8 85 -2 -73 c-1 -87 23 -166 75 -248 20 -31 31 -53 24
-49 -7 5 -30 8 -50 7 -20 -1 -51 2 -69 8 -30 8 -32 8 -25 -13 4 -12 19 -47 33
-77 22 -47 31 -56 66 -67 35 -10 37 -12 12 -12 -15 -1 -42 6 -59 15 -28 15
-30 15 -25 0 4 -9 2 -16 -3 -16 -8 0 -26 21 -58 66 -7 11 -2 -1 10 -26 23 -45
24 -45 88 -53 104 -12 254 -39 272 -48 10 -6 15 -16 11 -25 -5 -13 -30 -14
-174 -12 -92 2 -165 0 -161 -3 4 -4 73 -9 153 -13 81 -3 157 -10 170 -15 19
-8 20 -10 6 -10 -10 -1 -15 -6 -12 -11 4 -6 11 -7 17 -4 7 4 8 2 4 -5 -4 -6
-12 -9 -17 -6 -5 4 -9 -1 -9 -9 0 -14 19 -16 129 -16 94 0 131 3 134 13 4 9 8
8 16 -3 9 -12 11 -11 11 8 0 21 -4 22 -82 22 -106 0 -97 8 12 11 l85 2 0 -29
c0 -16 -2 -42 -6 -59 l-7 -30 -1 29 -1 29 -585 -6 -585 -5 0 63 c0 107 -40
182 -114 216 -37 17 -70 19 -346 19 -297 0 -307 -1 -350 -22 -26 -14 -57 -41
-75 -66 -27 -39 -30 -51 -33 -145 -2 -56 -9 -106 -14 -112 -7 -7 -9 -1 -6 17
l5 27 -196 3 c-108 2 -375 4 -594 3 l-397 0 2 75 2 75 3 -67 4 -66 138 -1 137
-2 3 50 2 49 -73 6 c-40 3 -86 5 -103 5 -23 1 -27 3 -15 11 8 5 25 10 37 10
12 0 68 11 125 24 104 25 184 32 248 22 19 -3 26 -3 15 1 -76 22 -80 35 -12
47 27 5 37 4 32 -3 -3 -6 -3 -11 2 -11 4 0 34 53 65 118 32 64 52 109 45 98
-44 -67 -41 -66 -144 -66 -90 0 -97 -2 -132 -29 -72 -56 -140 -92 -216 -111
-292 -75 -548 69 -620 347 -16 61 -20 139 -7 146 4 3 102 -24 217 -59 130 -40
219 -63 233 -59 47 12 152 86 158 112 10 38 -3 162 -21 215 -16 45 -19 48 -78
67 -62 20 -233 64 -294 74 -20 4 -33 2 -36 -6 -3 -7 -8 -5 -13 7 -17 42 149
162 262 191 71 18 194 13 274 -11z m4307 -16 c-3 -8 -6 -5 -6 6 -1 11 2 17 5
13 3 -3 4 -12 1 -19z m-2510 -29 c-37 -22 -254 -69 -362 -79 -79 -8 -142 -8
-225 0 -63 7 -116 13 -118 14 -1 2 78 1 175 -2 190 -5 331 12 468 57 69 22 88
25 62 10z m740 -26 c-3 -10 -5 -4 -5 12 0 17 2 24 5 18 2 -7 2 -21 0 -30z
m296 30 c-7 -2 -19 -2 -25 0 -7 3 -2 5 12 5 14 0 19 -2 13 -5z m130 0 c-7 -2
-19 -2 -25 0 -7 3 -2 5 12 5 14 0 19 -2 13 -5z m80 -10 c-7 -2 -19 -2 -25 0
-7 3 -2 5 12 5 14 0 19 -2 13 -5z m67 -13 c11 -8 7 -9 -15 -4 -37 8 -45 14
-19 14 10 0 26 -5 34 -10z m60 -20 c18 -12 2 -12 -25 0 -13 6 -15 9 -5 9 8 0
22 -4 30 -9z m1137 -87 c-3 -10 -5 -2 -5 17 0 19 2 27 5 18 2 -10 2 -26 0 -35z
m-2690 -9 c-3 -3 -12 -4 -19 -1 -8 3 -5 6 6 6 11 1 17 -2 13 -5z m-54 -11 c-7
-2 -21 -2 -30 0 -10 3 -4 5 12 5 17 0 24 -2 18 -5z m-2005 -25 c17 -5 32 -11
32 -14 0 -7 -53 8 -80 23 -15 9 -17 12 -5 8 11 -4 35 -11 53 -17z m1912 11
c-25 -4 -110 -7 -190 -6 l-145 1 155 6 c236 9 233 9 180 -1z m-1843 -35 c-3
-3 -12 -4 -19 -1 -8 3 -5 6 6 6 11 1 17 -2 13 -5z m58 -14 c13 -5 14 -9 5 -9
-8 0 -24 4 -35 9 -13 5 -14 9 -5 9 8 0 24 -4 35 -9z m835 -40 l-25 -20 30 -25
c17 -14 25 -25 18 -25 -6 0 -23 14 -38 32 l-27 31 29 13 c39 17 42 16 13 -6z
m530 -15 c-19 -20 -58 -55 -88 -78 l-52 -42 142 -12 143 -11 -145 5 c-80 3
-149 7 -153 10 -4 2 9 17 30 33 21 16 63 51 93 79 64 58 79 66 30 16z m660
-18 c-20 -17 -58 -51 -85 -74 l-50 -42 30 0 c23 -1 26 2 15 9 -12 8 -10 10 8
10 13 0 21 -4 17 -9 -3 -6 14 -12 37 -14 24 -2 -2 -4 -56 -5 l-99 -2 44 30
c24 17 71 52 104 79 68 57 87 66 35 18z m-10 -81 c0 -2 -8 -10 -17 -17 -16
-13 -17 -12 -4 4 13 16 21 21 21 13z m133 -33 c-7 -2 -21 -2 -30 0 -10 3 -4 5
12 5 17 0 24 -2 18 -5z m-83 -588 c43 -22 70 -67 69 -112 l-2 -38 -6 40 c-4
26 -11 40 -21 41 -8 0 -36 10 -62 23 -47 21 -56 22 -325 19 -275 -3 -278 -3
-310 -27 -17 -13 -36 -20 -41 -17 -6 4 -15 -2 -21 -11 -10 -17 -10 -17 -11 1
0 10 17 36 39 57 l39 39 311 0 c256 0 317 -3 341 -15z m-267 -42 c-34 -2 -93
-2 -130 0 -37 2 -9 3 62 3 72 0 102 -1 68 -3z m155 0 c-10 -2 -28 -2 -40 0
-13 2 -5 4 17 4 22 1 32 -1 23 -4z m-108 -113 l0 -100 100 0 100 0 0 -120 0
-120 -100 0 -100 0 0 -100 0 -100 -120 0 -120 0 0 100 0 100 -100 0 -100 0 0
123 0 122 100 -3 100 -3 0 100 0 101 120 0 120 0 0 -100z m-263 43 c-3 -10 -5
-2 -5 17 0 19 2 27 5 18 2 -10 2 -26 0 -35z m1770 31 c-3 -3 -12 -4 -19 -1 -8
3 -5 6 6 6 11 1 17 -2 13 -5z m-3230 -10 c-3 -3 -12 -4 -19 -1 -8 3 -5 6 6 6
11 1 17 -2 13 -5z m880 -160 c-3 -3 -12 -4 -19 -1 -8 3 -5 6 6 6 11 1 17 -2
13 -5z m1210 -16 c-3 -8 -6 -5 -6 6 -1 11 2 17 5 13 3 -3 4 -12 1 -19z m1173
-77 l0 -48 -107 -65 c-60 -36 -184 -112 -278 -168 -223 -135 -601 -360 -795
-473 -251 -147 -322 -172 -475 -171 -117 1 -195 22 -330 89 -93 46 -526 302
-1170 692 l-150 91 -3 51 -3 51 55 0 56 0 0 -36 c0 -20 7 -50 15 -68 15 -32
71 -73 90 -67 6 1 7 -1 3 -4 -12 -13 12 -45 32 -45 11 0 20 -5 20 -12 0 -6 3
-8 8 -4 4 4 8 58 8 119 l2 112 455 3 455 2 4 -187 c3 -170 5 -192 25 -228 26
-49 78 -100 116 -114 18 -7 138 -11 320 -11 327 0 349 4 400 72 52 68 57 94
57 288 l0 180 468 -2 c257 -1 487 -4 512 -8 l45 -7 -52 -1 -53 -2 2 -97 c1
-76 2 -87 7 -48 3 29 9 43 12 35 5 -13 18 -15 59 -10 53 5 53 5 66 50 18 59
17 70 -3 70 -9 0 -14 3 -10 6 7 8 119 22 130 16 4 -2 7 -25 7 -51z m-3057 32
c-13 -2 -35 -2 -50 0 -16 2 -5 4 22 4 28 0 40 -2 28 -4z m2827 -28 c0 -8 -7
-15 -15 -15 -8 0 -15 7 -15 15 0 8 7 15 15 15 8 0 15 -7 15 -15z"/>
<path d="M3593 7050 c0 -30 2 -43 4 -27 2 15 2 39 0 55 -2 15 -4 2 -4 -28z"/>
<path d="M3612 5652 c-1 -18 -11 -40 -22 -49 -26 -22 -25 -33 0 -33 26 0 32
16 27 71 -3 35 -4 37 -5 11z"/>
<path d="M4238 7243 c-32 -14 -58 -29 -58 -34 0 -5 26 4 58 20 31 16 64 31 72
34 13 5 13 5 0 6 -8 0 -41 -12 -72 -26z"/>
<path d="M4170 7174 c0 -10 53 -104 57 -101 1 2 -9 27 -23 55 -24 48 -34 62
-34 46z"/>
<path d="M4089 6763 c-13 -16 -12 -17 4 -4 9 7 17 15 17 17 0 8 -8 3 -21 -13z"/>
<path d="M7343 7158 c-54 -51 -146 -139 -205 -195 -59 -57 -113 -103 -120
-103 -7 0 -48 27 -91 59 l-77 59 -75 -32 c-41 -17 -74 -33 -74 -36 0 -5 102
-97 251 -227 67 -58 85 -69 97 -60 52 43 347 406 436 538 l43 64 -30 12 c-17
7 -36 13 -44 13 -7 0 -57 -42 -111 -92z"/>
<path d="M3024 7136 c-88 -142 -134 -228 -133 -248 0 -7 5 -3 11 10 6 12 15
22 21 22 5 0 4 -7 -3 -15 -16 -19 -5 -34 20 -28 15 4 19 2 15 -9 -6 -15 28
-44 57 -50 7 -2 16 -7 20 -13 5 -6 8 -6 8 2 0 6 8 10 18 8 9 -2 17 -4 17 -5 0
-1 8 -3 18 -5 9 -2 15 0 12 5 -3 4 4 10 15 13 11 3 20 11 20 19 0 10 -2 10 -9
-1 -5 -8 -16 -11 -26 -8 -9 4 -13 3 -10 -2 3 -6 -7 -8 -22 -7 -15 2 -27 10
-29 19 -1 9 3 14 11 11 10 -4 12 2 9 25 -4 24 -2 31 11 31 14 0 16 -6 11 -27
-5 -21 -4 -24 4 -13 25 37 -6 70 -37 39 -8 -8 -11 -6 -10 7 1 11 7 23 12 27 6
5 -1 7 -16 4 -16 -2 -26 1 -26 9 0 7 8 11 18 9 12 -3 16 1 12 11 -3 8 -1 14 5
14 13 0 9 27 -5 41 -6 6 -17 9 -25 6 -8 -3 -4 -8 12 -15 18 -8 20 -11 8 -11
-10 -1 -18 -7 -18 -15 0 -8 -7 -16 -15 -20 -13 -5 -13 -2 1 19 9 14 12 25 6
25 -6 0 -13 -6 -16 -12 -3 -7 -3 -3 0 10 3 13 1 22 -6 22 -6 0 -8 5 -4 11 5 8
9 8 14 -1 4 -7 13 -2 25 17 l18 28 -21 -19 c-12 -11 -22 -17 -22 -14 0 7 55
105 85 153 10 17 20 31 21 33 1 1 35 -10 75 -26 41 -16 106 -39 144 -52 39
-12 75 -27 80 -33 7 -7 6 -8 -2 -3 -16 9 -16 1 -2 -26 8 -15 8 -19 0 -14 -6 4
-11 0 -11 -8 0 -17 -66 -50 -81 -40 -5 3 -9 0 -9 -5 0 -6 5 -12 10 -12 6 -1
16 -2 23 -3 7 -1 11 -13 10 -29 -1 -15 2 -27 8 -27 6 0 8 4 5 9 -3 4 1 17 9
27 12 16 16 17 27 5 7 -8 8 -11 2 -8 -7 4 -15 0 -18 -9 -4 -10 -2 -13 7 -8 8
5 7 2 -2 -9 -14 -18 -61 -24 -61 -7 0 5 -7 7 -15 4 -8 -4 -15 -14 -15 -23 0
-10 3 -12 8 -5 4 6 17 7 32 3 24 -7 24 -7 2 -8 -19 -1 -21 -3 -10 -15 7 -8 15
-13 18 -13 6 2 10 -8 10 -24 0 -8 -6 -7 -17 2 -9 8 -14 9 -10 3 4 -7 -2 -23
-13 -37 -27 -34 -25 -41 5 -21 14 9 22 21 18 27 -3 6 -1 7 5 3 7 -4 12 -14 12
-22 0 -18 19 -18 43 0 13 10 15 15 5 18 -10 4 -11 11 -2 36 10 25 9 32 -3 36
-8 3 -11 1 -8 -5 4 -5 2 -16 -5 -24 -8 -10 -8 -19 -1 -33 8 -15 7 -21 -3 -25
-9 -4 -13 6 -12 38 1 51 17 75 39 57 8 -7 18 -8 23 -4 4 4 2 -1 -5 -10 -11
-15 -11 -21 -1 -34 8 -8 9 -14 4 -13 -21 4 -24 -2 -10 -17 19 -18 21 -38 4
-28 -10 6 -10 4 0 -7 7 -7 13 -42 13 -78 1 -42 6 -8 14 94 26 321 26 313 7
309 -16 -4 -186 49 -297 94 l-50 19 -81 -131z m366 -95 c0 -5 -11 -8 -25 -8
-13 0 -22 3 -19 8 3 5 14 9 25 9 10 0 19 -4 19 -9z m-393 -106 c0 -8 -4 -12
-9 -9 -4 3 -8 9 -8 15 0 5 4 9 8 9 5 0 9 -7 9 -15z"/>
<path d="M3200 7190 c0 -5 5 -10 11 -10 5 0 7 5 4 10 -3 6 -8 10 -11 10 -2 0
-4 -4 -4 -10z"/>
<path d="M3354 7120 c0 -11 4 -20 9 -20 4 0 13 0 20 0 9 0 8 3 -2 9 -7 5 -10
14 -7 20 4 6 1 11 -7 11 -8 0 -14 -9 -13 -20z"/>
<path d="M3272 7103 c-5 -10 -7 -24 -4 -32 3 -8 0 -11 -6 -7 -6 3 -13 3 -16
-2 -2 -4 4 -8 14 -9 13 -1 19 7 23 30 6 38 2 45 -11 20z"/>
<path d="M3211 7103 c-1 -17 16 -25 25 -12 4 7 3 9 -4 5 -5 -3 -13 0 -15 6 -4
9 -6 10 -6 1z"/>
<path d="M3333 7080 c-10 -15 -9 -17 8 -13 20 5 25 18 11 27 -4 2 -13 -4 -19
-14z"/>
<path d="M3200 7050 c-13 -8 -12 -10 3 -10 9 0 17 5 17 10 0 12 -1 12 -20 0z"/>
<path d="M3106 7021 c-3 -4 1 -17 10 -27 14 -18 15 -18 5 2 -6 12 -7 24 -4 28
3 3 4 6 0 6 -3 0 -8 -4 -11 -9z"/>
<path d="M3079 7011 c-3 -21 -4 -26 -12 -39 -5 -7 -4 -11 1 -10 5 2 19 -8 30
-22 18 -21 21 -22 22 -7 0 9 -5 17 -11 17 -5 0 -8 4 -4 9 3 5 1 12 -4 16 -6 3
-8 12 -5 19 3 8 1 17 -5 21 -6 3 -12 1 -12 -4z"/>
<path d="M3281 7013 c-1 -17 16 -25 25 -12 4 7 3 9 -4 5 -5 -3 -13 0 -15 6 -4
9 -6 10 -6 1z"/>
<path d="M3148 6998 c5 -5 16 -8 23 -6 8 3 3 7 -10 11 -17 4 -21 3 -13 -5z"/>
<path d="M3138 6943 c7 -3 16 -2 19 1 4 3 -2 6 -13 5 -11 0 -14 -3 -6 -6z"/>
<path d="M3184 6942 c4 -3 14 -7 22 -8 9 -1 13 0 10 4 -4 3 -14 7 -22 8 -9 1
-13 0 -10 -4z"/>
<path d="M3235 6940 c3 -5 8 -10 11 -10 2 0 4 5 4 10 0 6 -5 10 -11 10 -5 0
-7 -4 -4 -10z"/>
<path d="M3135 6910 c4 -13 0 -23 -13 -31 -11 -7 -18 -18 -15 -26 4 -10 7 -10
18 1 8 8 31 11 63 9 47 -4 50 -3 45 16 -3 12 -1 21 6 21 6 0 11 6 11 13 0 6
-12 -1 -25 -16 -15 -17 -25 -23 -25 -14 0 18 -26 40 -52 44 -15 2 -18 -1 -13
-17z m52 -16 c5 -14 -35 -26 -43 -13 -3 5 3 9 13 9 15 0 16 2 3 11 -12 8 -12
10 4 7 11 -2 21 -8 23 -14z"/>
<path d="M3263 6915 c0 -10 4 -12 10 -6 7 7 15 7 25 -2 12 -10 14 -9 10 3 -7
21 -45 25 -45 5z"/>
<path d="M3249 6888 c-6 -20 -6 -38 1 -38 18 0 20 -35 3 -49 -17 -13 -17 -13
1 -7 11 4 23 1 29 -6 6 -9 7 -4 2 12 -13 54 -13 60 -3 66 6 4 5 10 -3 15 -14
8 -28 12 -30 7z"/>
<path d="M3292 6870 c-8 -13 -8 -20 -2 -20 6 0 13 7 17 15 9 24 -1 27 -15 5z"/>
<path d="M3156 6842 c-3 -6 3 -13 14 -17 11 -4 17 -11 14 -17 -4 -6 2 -6 15 1
25 14 28 26 5 17 -14 -5 -15 -4 -4 9 8 9 8 15 2 15 -6 0 -14 -5 -18 -11 -5 -8
-9 -8 -14 1 -5 8 -10 9 -14 2z"/>
<path d="M3316 6824 c-22 -21 -20 -30 7 -31 12 0 16 1 10 4 -7 3 -13 9 -13 14
0 6 5 7 10 4 6 -3 10 1 10 9 0 20 -5 20 -24 0z"/>
<path d="M3349 6818 c-6 -23 -7 -48 -1 -52 4 -2 9 9 10 25 1 16 0 29 -3 29 -3
0 -5 -1 -6 -2z"/>
<path d="M3126 6518 c-3 -13 -5 -36 -5 -53 1 -21 4 -15 10 20 8 52 6 72 -5 33z"/>
<path d="M3111 6414 c0 -11 3 -14 6 -6 3 7 2 16 -1 19 -3 4 -6 -2 -5 -13z"/>
<path d="M3091 6339 c-6 -29 -9 -54 -7 -56 5 -5 12 18 21 70 9 55 -2 45 -14
-14z"/>
<path d="M2850 6195 c-58 -13 -122 -26 -143 -30 l-37 -6 2 -227 3 -227 50 -8
c111 -18 252 -46 276 -55 23 -9 28 -21 44 -96 10 -47 19 -86 20 -86 10 0 210
42 215 45 4 2 -2 44 -12 92 -10 48 -24 149 -32 223 -8 74 -14 114 -15 88 -1
-47 -13 -68 -27 -47 -4 8 -3 9 4 5 18 -11 4 67 -14 81 -11 8 -14 19 -8 35 6
21 6 22 -11 8 -11 -8 -16 -10 -12 -4 4 7 -2 23 -13 35 -11 13 -19 20 -20 15 0
-5 -6 -3 -14 4 -8 6 -12 18 -9 26 3 8 0 21 -7 29 -6 8 -8 20 -4 27 4 7 4 10
-1 6 -9 -9 -38 19 -31 30 2 4 -14 6 -35 4 -30 -3 -44 0 -53 13 -8 11 -19 15
-27 11 -8 -4 -5 0 5 8 11 9 18 18 15 20 -2 2 -51 -7 -109 -19z m231 -128 c-10
-9 -11 -8 -5 6 3 10 9 15 12 12 3 -3 0 -11 -7 -18z m140 -260 c-10 -9 -11 -8
-5 6 3 10 9 15 12 12 3 -3 0 -11 -7 -18z"/>
<path d="M3125 6110 c-3 -5 -1 -10 4 -10 6 0 11 5 11 10 0 6 -2 10 -4 10 -3 0
-8 -4 -11 -10z"/>
<path d="M3110 6059 c0 -11 5 -17 10 -14 6 3 10 13 10 21 0 8 -4 14 -10 14 -5
0 -10 -9 -10 -21z"/>
<path d="M3135 6040 c3 -5 8 -10 11 -10 2 0 4 5 4 10 0 6 -5 10 -11 10 -5 0
-7 -4 -4 -10z"/>
<path d="M2965 5000 c38 -9 253 -14 244 -6 -2 2 -67 6 -144 9 -90 4 -126 3
-100 -3z"/>
<path d="M3930 4288 c-1 -157 -102 -312 -250 -385 -82 -40 -136 -52 -230 -53
-161 0 -301 67 -371 179 -16 25 -29 40 -29 35 0 -18 57 -100 83 -121 15 -11
24 -23 21 -26 -9 -9 97 -76 157 -99 75 -28 204 -35 292 -14 82 19 146 51 218
107 30 24 61 44 69 44 19 0 98 157 105 210 5 36 4 35 -13 -15 -20 -61 -41
-102 -42 -82 0 7 -4 10 -10 7 -5 -3 -10 -1 -10 5 0 7 -6 10 -13 7 -9 -3 -6 16
10 62 12 36 23 88 23 115 0 42 2 47 15 36 9 -7 17 -11 19 -9 2 2 -7 12 -20 22
l-24 18 0 -43z m4 -253 c-4 -8 -8 -15 -10 -15 -2 0 -4 7 -4 15 0 8 4 15 10 15
5 0 7 -7 4 -15z m-34 -60 c-7 -9 -15 -13 -18 -10 -3 2 1 11 8 20 7 9 15 13 18
10 3 -2 -1 -11 -8 -20z"/>
<path d="M4249 4193 l-24 -28 28 24 c25 23 32 31 24 31 -2 0 -14 -12 -28 -27z"/>
<path d="M5950 4195 c13 -14 26 -25 28 -25 3 0 -5 11 -18 25 -13 14 -26 25
-28 25 -3 0 5 -11 18 -25z"/>
<path d="M6141 4154 c0 -11 3 -14 6 -6 3 7 2 16 -1 19 -3 4 -6 -2 -5 -13z"/>
<path d="M4199 4133 c-13 -16 -12 -17 4 -4 16 13 21 21 13 21 -2 0 -10 -8 -17
-17z"/>
<path d="M6151 4104 c0 -11 3 -14 6 -6 3 7 2 16 -1 19 -3 4 -6 -2 -5 -13z"/>
<path d="M6194 3983 c9 -17 20 -35 26 -38 18 -11 10 9 -16 40 l-26 30 16 -32z"/>
<path d="M4113 3823 c-3 -10 -15 -29 -27 -43 l-21 -25 27 23 c14 13 28 32 31
43 6 24 -1 25 -10 2z"/>
<path d="M3948 3783 c6 -2 18 -2 25 0 6 3 1 5 -13 5 -14 0 -19 -2 -12 -5z"/>
<path d="M4164 3739 c-54 -60 -68 -64 -244 -69 l-165 -6 168 -2 168 -2 52 50
c29 27 49 50 46 50 -3 0 -14 -9 -25 -21z"/>
<path d="M6097 3709 c12 -12 24 -21 27 -18 2 2 -8 13 -22 23 l-27 19 22 -24z"/>
<path d="M3640 3700 c-21 -7 -21 -8 -5 -9 11 0 27 4 35 9 18 11 5 11 -30 0z"/>
<path d="M6463 3375 c0 -38 2 -53 4 -32 2 20 2 52 0 70 -2 17 -4 1 -4 -38z"/>
<path d="M6462 3280 c0 -14 2 -19 5 -12 2 6 2 18 0 25 -3 6 -5 1 -5 -13z"/>
</g>
</svg>
